<?xml version="1.0" standalone="no"?>
<!DOCTYPE svg PUBLIC "-//W3C//DTD SVG 20010904//EN"
 "http://www.w3.org/TR/2001/REC-SVG-20010904/DTD/svg10.dtd">
<svg version="1.0" xmlns="http://www.w3.org/2000/svg"
 width="193.000000pt" height="193.000000pt" viewBox="0 0 193.000000 193.000000"
 preserveAspectRatio="xMidYMid meet">
<metadata>
Created by potrace 1.14, written by Peter Selinger 2001-2017
</metadata>
<g transform="translate(0.000000,193.000000) scale(0.100000,-0.100000)"
fill="#000000" stroke="none">
<path d="M0 965 l0 -965 200 0 200 0 0 160 c0 153 -1 160 -20 160 -19 0 -20 7
-20 160 0 153 -1 160 -20 160 -13 0 -20 7 -20 20 0 13 -7 20 -20 20 -13 0 -20
7 -20 20 0 13 -7 20 -20 20 -13 0 -20 7 -20 20 0 17 -7 20 -40 20 -33 0 -40 3
-40 20 0 13 -7 20 -20 20 -19 0 -20 7 -20 140 0 133 1 140 20 140 18 0 20 7
20 60 0 53 2 60 20 60 17 0 20 7 20 40 0 33 3 40 20 40 17 0 20 7 20 40 0 33
3 40 20 40 13 0 20 7 20 20 0 13 7 20 20 20 17 0 20 7 20 40 0 33 3 40 20 40
13 0 20 7 20 20 0 13 7 20 20 20 13 0 20 7 20 20 0 18 7 20 60 20 53 0 60 2
60 20 0 13 7 20 20 20 17 0 20 7 20 40 l0 40 180 0 c173 0 180 -1 180 -20 0
-19 7 -20 100 -20 93 0 100 -1 100 -20 0 -18 7 -20 80 -20 73 0 80 -2 80 -20
0 -18 7 -20 60 -20 53 0 60 -2 60 -20 0 -17 7 -20 40 -20 33 0 40 -3 40 -20 0
-17 7 -20 40 -20 33 0 40 -3 40 -20 0 -13 7 -20 20 -20 13 0 20 -7 20 -20 0
-13 7 -20 20 -20 13 0 20 -7 20 -20 0 -13 7 -20 20 -20 13 0 20 -7 20 -20 0
-13 7 -20 20 -20 13 0 20 -7 20 -20 0 -13 7 -20 20 -20 17 0 20 -7 20 -40 0
-33 3 -40 20 -40 19 0 20 -7 20 -180 0 -173 -1 -180 -20 -180 -17 0 -20 -7
-20 -40 0 -33 -3 -40 -20 -40 -13 0 -20 -7 -20 -20 0 -13 -7 -20 -20 -20 -13
0 -20 -7 -20 -20 0 -13 -7 -20 -20 -20 -17 0 -20 -7 -20 -40 0 -33 3 -40 20
-40 17 0 20 -7 20 -40 0 -33 3 -40 20 -40 18 0 20 -7 20 -60 0 -53 2 -60 20
-60 19 0 20 -7 20 -100 0 -93 1 -100 20 -100 19 0 20 -7 20 -100 l0 -100 65 0
65 0 0 965 0 965 -965 0 -965 0 0 -965z"/>
<path d="M800 1580 c0 -18 -7 -20 -60 -20 -53 0 -60 -2 -60 -20 0 -18 -7 -20
-60 -20 -53 0 -60 -2 -60 -20 0 -18 -7 -20 -60 -20 -53 0 -60 -2 -60 -20 0
-13 -7 -20 -20 -20 -17 0 -20 -7 -20 -40 0 -33 -3 -40 -20 -40 -13 0 -20 -7
-20 -20 0 -13 -7 -20 -20 -20 -17 0 -20 -7 -20 -40 0 -33 -3 -40 -20 -40 -17
0 -20 -7 -20 -40 0 -33 -3 -40 -20 -40 -18 0 -20 -7 -20 -60 0 -53 -2 -60 -20
-60 -19 0 -20 -7 -20 -100 l0 -100 40 0 c33 0 40 -3 40 -20 0 -13 7 -20 20
-20 13 0 20 -7 20 -20 0 -13 7 -20 20 -20 13 0 20 -7 20 -20 0 -18 7 -20 60
-20 53 0 60 -2 60 -20 0 -18 7 -20 60 -20 53 0 60 -2 60 -20 0 -18 7 -20 80
-20 73 0 80 -2 80 -20 0 -20 7 -20 280 -20 273 0 280 0 280 20 0 18 7 20 60
20 53 0 60 2 60 20 0 17 7 20 40 20 33 0 40 3 40 20 0 17 7 20 40 20 33 0 40
3 40 20 0 13 7 20 20 20 13 0 20 7 20 20 0 13 7 20 20 20 17 0 20 7 20 40 0
33 3 40 20 40 19 0 20 7 20 140 0 133 -1 140 -20 140 -17 0 -20 7 -20 40 0 33
-3 40 -20 40 -13 0 -20 7 -20 20 0 13 -7 20 -20 20 -13 0 -20 7 -20 20 0 13
-7 20 -20 20 -13 0 -20 7 -20 20 0 13 -7 20 -20 20 -13 0 -20 7 -20 20 0 17
-7 20 -40 20 -33 0 -40 3 -40 20 0 17 -7 20 -40 20 -33 0 -40 3 -40 20 0 18
-7 20 -60 20 -53 0 -60 2 -60 20 0 18 -7 20 -80 20 -73 0 -80 2 -80 20 0 19
-7 20 -100 20 -93 0 -100 1 -100 20 0 17 -7 20 -40 20 -33 0 -40 -3 -40 -20z
m-240 -420 l0 -40 -40 0 -40 0 0 40 0 40 40 0 40 0 0 -40z m840 -40 l0 -40
-40 0 -40 0 0 40 0 40 40 0 40 0 0 -40z m-200 -140 c0 -18 7 -20 60 -20 l60 0
0 -40 0 -40 -80 0 c-73 0 -80 2 -80 20 0 20 -7 20 -360 20 l-360 0 0 40 0 40
380 0 c373 0 380 0 380 -20z"/>
<path d="M440 480 c0 -113 1 -120 20 -120 19 0 20 -7 20 -180 l0 -180 620 0
620 0 0 80 c0 73 -2 80 -20 80 -19 0 -20 7 -20 100 0 93 -1 100 -20 100 -18 0
-20 7 -20 60 0 53 -2 60 -20 60 -17 0 -20 7 -20 40 0 33 -3 40 -20 40 -13 0
-20 7 -20 20 0 17 -7 20 -40 20 -33 0 -40 -3 -40 -20 0 -18 -7 -20 -60 -20
-53 0 -60 -2 -60 -20 0 -20 -7 -20 -320 -20 -313 0 -320 0 -320 20 0 18 -7 20
-80 20 -73 0 -80 2 -80 20 0 18 -7 20 -60 20 l-60 0 0 -120z"/>
</g>
</svg>
